<svg xmlns="http://www.w3.org/2000/svg" viewBox="0 0 512 512"><g fill="#4a5058"><path d="M258.164 473.119a16.497 16.497 0 01-12.096-5.256c-6.231-6.68-5.869-17.144.811-23.375 14.85-13.855 25.946-41.132 25.946-56.267 0-9.134 7.404-16.539 16.539-16.539s16.539 7.404 16.539 16.539c0 25.607-16.355 61.698-36.46 80.452a16.483 16.483 0 01-11.279 4.446zM324.557 473.119a16.497 16.497 0 01-12.096-5.256c-6.231-6.68-5.869-17.144.811-23.375 14.849-13.854 25.945-41.131 25.945-56.267 0-9.134 7.404-16.539 16.539-16.539 9.134 0 16.539 7.404 16.539 16.539 0 25.607-16.355 61.699-36.458 80.452a16.488 16.488 0 01-11.28 4.446z"/></g><path d="M289.363 371.682c-9.134 0-16.539 7.404-16.539 16.539 0 15.135-11.096 42.412-25.946 56.267-6.679 6.23-7.042 16.696-.811 23.375a16.497 16.497 0 0012.096 5.256c4.042 0 8.091-1.472 11.279-4.445 20.103-18.754 36.46-54.846 36.46-80.452-.001-9.136-7.405-16.54-16.539-16.54zm66.392 0c-9.134 0-16.539 7.404-16.539 16.539 0 15.136-11.096 42.413-25.945 56.267-6.678 6.23-7.042 16.696-.811 23.375a16.497 16.497 0 0012.096 5.256c4.041 0 8.091-1.472 11.279-4.445 20.102-18.753 36.458-54.845 36.458-80.452.001-9.136-7.404-16.54-16.538-16.54z" opacity=".15"/><path d="M355.755 371.682c-9.134 0-16.539 7.404-16.539 16.539 0 8.296-3.339 20.239-8.796 31.62h35.688c3.904-11.036 6.185-22.058 6.185-31.62.001-9.135-7.404-16.539-16.538-16.539zm-66.392 0c-9.134 0-16.539 7.404-16.539 16.539 0 8.296-3.339 20.237-8.797 31.62h35.688c3.904-11.036 6.186-22.058 6.186-31.62 0-9.135-7.404-16.539-16.538-16.539z" opacity=".1"/><path d="M322.743 54.678c-21.064 21.064-43.983 99.078-33.392 109.669 10.591 10.591 88.605-12.328 109.669-33.392 21.064-21.064 21.064-55.214 0-76.277-21.062-21.063-55.213-21.063-76.277 0z" fill="#e8e8e8"/><path d="M43.559 240.242l-38.501 23.56c-6.744 4.127-6.744 13.922 0 18.049l38.501 23.559c7.159 4.38 16.535 1.111 19.419-6.771l3.691-10.093a45.765 45.765 0 000-31.441l-3.691-10.093c-2.883-7.881-12.261-11.15-19.419-6.77z" fill="#4a5058"/><path d="M66.669 257.105l-3.691-10.093c-2.884-7.882-12.26-11.151-19.419-6.771l-16.546 10.125c-1.286 7.293-1.96 14.797-1.96 22.459s.675 15.166 1.96 22.459l16.546 10.125c7.159 4.38 16.535 1.111 19.419-6.771l3.691-10.093a45.762 45.762 0 000-31.44z" opacity=".1"/><path d="M383.541 401.286c70.947 0 128.459-57.513 128.459-128.459 0-70.947-57.513-128.46-128.459-128.46H166.875c-70.946 0-128.459 57.513-128.459 128.46 0 70.946 57.513 128.459 128.459 128.459h216.666z" fill="#f7da70"/><g fill="#4a5058"><path d="M481.067 273.873a8.185 8.185 0 01-8.186-8.186v-12.19c0-4.522 3.664-8.186 8.186-8.186s8.186 3.664 8.186 8.186v12.19a8.186 8.186 0 01-8.186 8.186zM347.317 273.873a8.185 8.185 0 01-8.186-8.186v-12.19a8.185 8.185 0 018.186-8.186 8.185 8.185 0 018.186 8.186v12.19a8.186 8.186 0 01-8.186 8.186z"/></g><path d="M428.415 277.219c-7.855 0-14.223-6.367-14.223-14.223 0 7.855-6.367 14.223-14.223 14.223-3.568 0-6.82-1.324-9.318-3.494v18.236c0 13 10.539 23.54 23.54 23.54 13 0 23.54-10.539 23.54-23.54v-18.236a14.146 14.146 0 01-9.316 3.494z" fill="#edbcb9"/><path d="M414.192 298.842c-7.642 0-14.545 2.416-19.502 6.304 4.233 6.247 11.387 10.354 19.502 10.354 8.115 0 15.269-4.107 19.502-10.354-4.956-3.888-11.861-6.304-19.502-6.304z" fill="#d46d59"/><g fill="#4a5058"><path d="M428.415 285.405a22.31 22.31 0 01-14.223-5.105 22.3 22.3 0 01-14.221 5.105c-12.356 0-22.408-10.052-22.408-22.407a8.185 8.185 0 018.186-8.186 8.185 8.185 0 018.186 8.186c0 3.329 2.708 6.036 6.037 6.036s6.036-2.707 6.036-6.036c0-4.522 3.664-8.186 8.186-8.186s8.186 3.664 8.186 8.186c0 3.329 2.708 6.036 6.037 6.036s6.036-2.707 6.036-6.036c0-4.522 3.664-8.186 8.186-8.186s8.186 3.664 8.186 8.186c-.002 12.355-10.054 22.407-22.41 22.407z"/><path d="M282.007 272.826c0-62.035 42.92-114.226 100.621-128.46h-92.302c-41.805 18.701-74.473 59.729-74.473 128.46s32.669 109.758 74.473 128.459h92.302c-57.702-14.234-100.621-66.424-100.621-128.459z"/><path d="M140.82 272.826c0-62.035 42.92-114.226 100.622-128.46h-74.567c-7.375 0-14.601.631-21.637 1.824-39.918 19.475-70.573 60.058-70.573 126.637 0 66.578 30.653 107.161 70.573 126.637a129.322 129.322 0 0021.637 1.824h74.567C183.74 387.051 140.82 334.861 140.82 272.826z"/></g><path d="M240.398 144.367h-73.524c-19.202 0-37.417 4.221-53.776 11.773a53.712 53.712 0 0017.794 13.584c26.914 12.767 108.094 8.157 114.514-5.375 1.712-3.611-.433-10.937-5.008-19.982z" opacity=".15"/><path d="M212.014 54.678c21.064 21.064 43.983 99.078 33.392 109.669-10.591 10.591-88.605-12.328-109.669-33.392s-21.064-55.214 0-76.277c21.063-21.063 55.213-21.063 76.277 0z" fill="#e8e8e8"/><g fill="#4a5058"><path d="M129.482 473.119a16.497 16.497 0 01-12.096-5.256c-6.231-6.68-5.869-17.144.811-23.375 14.849-13.854 25.945-41.131 25.945-56.267 0-9.134 7.404-16.539 16.539-16.539s16.539 7.404 16.539 16.539c0 25.607-16.355 61.699-36.458 80.452a16.486 16.486 0 01-11.28 4.446zM195.876 473.119a16.493 16.493 0 01-12.096-5.256c-6.231-6.68-5.868-17.143.811-23.375 14.849-13.855 25.945-41.132 25.945-56.267 0-9.134 7.404-16.539 16.539-16.539s16.539 7.404 16.539 16.539c0 25.607-16.355 61.698-36.458 80.452a16.486 16.486 0 01-11.28 4.446z"/></g></svg>